<svg width="20" height="20" viewBox="0 0 20 20" fill="none" xmlns="http://www.w3.org/2000/svg">
<g id="user-square 1" clip-path="url(#clip0_5265_137)">
<g id="Group">
<path id="Vector" d="M15.1166 18.0166C14.3833 18.2333 13.5166 18.3333 12.5 18.3333H7.49997C6.4833 18.3333 5.61663 18.2333 4.8833 18.0166C5.06663 15.8499 7.29163 14.1416 9.99997 14.1416C12.7083 14.1416 14.9333 15.8499 15.1166 18.0166V18.0166Z" stroke="#828282" stroke-width="1.5" stroke-linecap="round" stroke-linejoin="round"/>
<path id="Vector_2" d="M12.4998 1.66663H7.49984C3.33317 1.66663 1.6665 3.33329 1.6665 7.49996V12.5C1.6665 15.65 2.6165 17.375 4.88317 18.0166C5.0665 15.85 7.2915 14.1416 9.99984 14.1416C12.7082 14.1416 14.9332 15.85 15.1165 18.0166C17.3832 17.375 18.3332 15.65 18.3332 12.5V7.49996C18.3332 3.33329 16.6665 1.66663 12.4998 1.66663ZM9.99984 11.8083C8.34984 11.8083 7.0165 10.4666 7.0165 8.81663C7.0165 7.16663 8.34984 5.83329 9.99984 5.83329C11.6498 5.83329 12.9832 7.16663 12.9832 8.81663C12.9832 10.4666 11.6498 11.8083 9.99984 11.8083Z" stroke="#828282" stroke-width="1.5" stroke-linecap="round" stroke-linejoin="round"/>
<path id="Vector_3" d="M12.9833 8.81659C12.9833 10.4666 11.6499 11.8083 9.99993 11.8083C8.34993 11.8083 7.0166 10.4666 7.0166 8.81659C7.0166 7.16659 8.34993 5.83325 9.99993 5.83325C11.6499 5.83325 12.9833 7.16659 12.9833 8.81659Z" stroke="#828282" stroke-width="1.5" stroke-linecap="round" stroke-linejoin="round"/>
</g>
</g>
<defs>
<clipPath id="clip0_5265_137">
<rect width="20" height="20" fill="white"/>
</clipPath>
</defs>
</svg>
